<?xml version="1.0" standalone="no"?>
<!DOCTYPE svg PUBLIC "-//W3C//DTD SVG 20010904//EN"
 "http://www.w3.org/TR/2001/REC-SVG-20010904/DTD/svg10.dtd">
<svg version="1.0" xmlns="http://www.w3.org/2000/svg"
 width="500.000000pt" height="500.000000pt" viewBox="0 0 500.000000 500.000000"
 preserveAspectRatio="xMidYMid meet">
<metadata>
Created by potrace 1.14, written by Peter Selinger 2001-2017
</metadata>
<g transform="translate(0.000000,500.000000) scale(0.100000,-0.100000)"
fill="#000000" stroke="none">
<path d="M3148 4875 c-2 -1 -30 -5 -63 -9 -63 -7 -110 -14 -135 -21 -8 -2 -29
-7 -45 -9 -114 -20 -432 -140 -494 -188 -13 -10 -27 -18 -32 -18 -10 0 -151
-93 -220 -146 -104 -80 -243 -224 -323 -336 -145 -204 -222 -413 -250 -678 -3
-25 -5 -45 -5 -45 -1 0 -13 -2 -28 -3 -45 -3 -114 -12 -173 -22 -52 -10 -69
-13 -122 -25 -13 -3 -36 -8 -52 -11 -16 -2 -34 -8 -40 -12 -6 -3 -19 -8 -28
-9 -48 -8 -210 -70 -305 -118 -149 -75 -175 -90 -279 -167 -273 -202 -443
-454 -505 -753 -15 -71 -18 -122 -15 -240 2 -82 6 -161 9 -175 3 -14 8 -41 11
-60 12 -84 103 -357 128 -385 4 -5 8 -14 8 -21 0 -6 19 -44 41 -85 23 -41 47
-83 53 -94 62 -113 245 -326 361 -421 193 -158 457 -282 675 -318 19 -3 44 -7
55 -10 11 -2 45 -7 75 -11 30 -4 64 -9 75 -12 11 -2 74 -5 140 -7 106 -4 178
3 330 29 17 3 50 8 75 11 25 3 65 9 90 14 24 4 89 8 143 8 189 1 350 -70 447
-197 120 -155 201 -208 274 -177 88 38 117 120 151 431 5 45 17 120 30 185 3
14 8 41 11 60 4 19 18 80 32 135 13 55 25 107 26 115 2 8 8 31 14 50 6 19 13
46 16 60 2 14 14 61 25 106 22 83 28 110 37 154 2 14 9 48 14 75 5 28 12 66
15 85 3 19 8 42 10 50 3 8 7 49 10 90 4 41 8 94 9 118 2 24 5 45 8 47 2 2 24
6 48 10 25 3 59 7 75 10 28 3 85 12 130 20 93 15 244 65 357 118 212 99 386
237 554 439 126 151 265 421 321 623 24 87 42 176 51 245 8 66 8 271 0 320 -9
56 -37 173 -47 195 -5 11 -21 51 -36 88 -46 114 -154 275 -247 367 -79 80
-203 179 -283 227 -85 51 -135 80 -165 94 -66 30 -125 56 -160 68 -19 7 -44
17 -55 21 -63 27 -292 84 -375 95 -25 3 -58 8 -74 11 -29 6 -372 14 -378 9z
m-508 -1277 c163 -50 206 -261 76 -376 -57 -50 -64 -49 -199 17 -68 34 -128
61 -133 61 -16 0 -31 54 -28 102 9 140 151 238 284 196z m766 -11 c37 -19 81
-63 102 -102 25 -45 23 -161 -3 -200 -46 -69 -97 -104 -165 -112 -68 -8 -131
12 -178 56 -116 110 -84 296 62 362 47 21 137 19 182 -4z m777 -1 c46 -23 100
-84 114 -130 24 -77 -4 -177 -62 -229 -132 -118 -344 -38 -368 139 -6 43 17
117 49 159 59 77 176 104 267 61z m-3177 -1447 c175 -74 175 -323 1 -399 -200
-86 -390 138 -269 319 62 91 168 123 268 80z m791 -5 c74 -46 112 -105 118
-184 4 -53 -25 -126 -65 -169 -65 -67 -196 -79 -274 -24 -145 102 -126 308 37
384 50 23 140 20 184 -7z m749 -9 c126 -74 140 -265 26 -353 -49 -37 -78 -48
-135 -51 -118 -5 -216 88 -222 213 -6 100 53 177 165 220 33 12 122 -3 166
-29z"/>
</g>
</svg>
